<svg width="144" height="26" viewBox="0 0 144 26" fill="none" xmlns="http://www.w3.org/2000/svg">
  <path d="M21.7259 23.2999L21.7263 23.3039V25.9996L21.7227 26H18.9494V23.2999H21.7259ZM2.77687 23.2999V25.9996L2.77373 26H0V23.2999H2.77687ZM18.5675 20.2298L18.5679 20.2329V22.9295H15.7906V20.2298H18.5675ZM21.7259 20.2298L21.7263 20.2329V22.9295H18.9494V20.2298H21.7259ZM2.77687 20.2298V22.9295H0V20.2298H2.77687ZM5.93526 20.2298V22.9295H3.15794V20.2298H5.93526ZM18.5675 1.24652L18.5679 1.24914V19.8585H15.7906V4.04509L18.5675 1.24652ZM20.38 0C21.1009 0 21.6913 0.553961 21.7259 1.24652V19.8585H18.9494V0.861233C18.9494 0.861233 19.3511 0.170852 20.1048 0.0278942C20.1083 0.0265866 20.1115 0.0261508 20.116 0.025715C20.2002 0.0104603 20.2872 0 20.38 0ZM3.15794 1.24609L5.93526 4.04509V19.8585H3.15794V1.24609ZM1.34629 0C1.4391 0 1.52607 0.0104603 1.6108 0.025715C1.61394 0.0261508 1.61753 0.0265866 1.62201 0.0278942C2.37563 0.170852 2.77642 0.861233 2.77642 0.861233L2.77687 19.8585H0V1.24652L0.00627643 1.24478C0.0416934 0.552654 0.624953 0 1.34629 0ZM9.47472 7.6125L10.8627 9.01157L12.252 7.61294V14.5799L10.8627 15.979L9.47472 14.5799V7.6125ZM15.41 4.42907V11.397L12.6327 14.1955V7.22765L15.41 4.42907ZM6.31633 4.42907L9.0941 7.22765V14.1951L6.31633 11.397V4.42907Z" fill="url(#paint0_linear)"/>
  <path d="M91.4187 6.1939V15.6952C91.4187 17.1882 93.0719 17.9251 94.5459 17.9251C95.9999 17.9251 97.6532 17.1688 97.6532 15.6758V6.1939H99.6848V15.6952C99.6848 18.4486 96.9361 19.8835 94.5459 19.8835C92.0959 19.8835 89.3871 18.4486 89.3871 15.6758V6.1939H91.4187ZM79.4953 6.03878C81.6465 6.03878 83.8774 7.12464 84.2359 9.60661L82.2441 9.68417C81.9652 8.46258 80.6107 7.93904 79.3957 7.95843C78.4596 7.97782 77.4238 8.28806 76.8661 8.98612C76.5873 9.33514 76.4877 9.78112 76.5275 10.2465C76.6157 11.4824 77.8589 11.761 79.1794 11.9028L79.3264 11.918C79.4 11.9254 79.4737 11.9325 79.5474 11.9393L79.6945 11.9528C81.6067 12.1855 83.9769 12.6703 84.5147 14.842C84.5745 15.1329 84.6143 15.4625 84.6143 15.734C84.6143 18.3517 81.9453 19.8641 79.4356 19.8641C77.2844 19.8641 74.6751 18.6231 74.4162 16.1993L74.3962 15.8309L76.4279 15.7921L76.4478 16.083V16.0054C76.5873 17.2658 78.1608 17.9251 79.4555 17.9251C80.9494 17.9251 82.5827 17.1107 82.5827 15.7146C82.5827 15.5788 82.5627 15.4237 82.5229 15.2492C82.2839 14.2215 80.8498 14.047 79.4555 13.9113C77.2844 13.698 74.7349 13.2326 74.5158 10.4016V10.421C74.4361 9.50965 74.6751 8.59831 75.2726 7.84208C76.2088 6.65927 77.8819 6.03878 79.4953 6.03878ZM137.148 6.1939C141.709 6.1939 144 9.58722 144 12.9805C144 16.3738 141.709 19.7478 137.148 19.7478H132.149V6.1939H137.148ZM30.1807 6.17451L34.7818 12.7672L39.3829 6.17451H40.9764V19.7478H38.9846V10.1883L35.3395 15.4625H34.2042L30.5591 10.1883V19.7478H28.5474V6.17451H30.1807ZM54.6526 6.1939V8.15233H48.1991V11.9722H54.5132V13.95H48.1991V17.7893H54.6725V19.7478H46.1674V6.1939H54.6526ZM65.3411 6L70.9381 19.7478H68.7869L67.1138 15.7533H62.1143C61.9187 16.2046 61.7021 16.7072 61.4845 17.2181L61.3215 17.6022C60.9962 18.3709 60.6802 19.1343 60.4412 19.7478H58.2701L63.8671 6H65.3411ZM109.855 6.17451C112.883 6.17451 114.397 8.34623 114.397 10.4986C114.397 12.4182 113.182 14.2409 110.792 14.6481L115.194 19.7478H112.584L107.505 13.7949V12.8642H109.855C111.548 12.8642 112.385 11.6814 112.385 10.4986C112.385 9.33514 111.548 8.15233 109.855 8.15233H106.768V19.7478H104.776V6.17451H109.855ZM127.535 6.1939V8.15233H121.082V11.9722H127.396V13.95H121.082V17.7893H127.555V19.7478H119.05V6.1939H127.535ZM137.148 8.15233H134.16V17.7893H137.148C140.375 17.7893 142.008 15.3849 142.008 12.9805C142.008 10.5761 140.375 8.15233 137.148 8.15233ZM64.624 9.12185L62.8712 13.9113H66.337L64.624 9.12185Z" fill="#000"/>
  <defs>
    <linearGradient id="paint0_linear" x1="0" y1="26" x2="21.7263" y2="26" gradientUnits="userSpaceOnUse">
      <stop stop-color="#F7C35D" offset="0"/>
      <stop offset="1" stop-color="#CD4A37"/>
    </linearGradient>
  </defs>
</svg>
