<svg xmlns="http://www.w3.org/2000/svg" width="512" height="408" viewBox="4 0 10 25">
  <path fill-rule="evenodd" clip-rule="evenodd"
        d="M0.0063555 1.27898C0.0422186 0.567836 0.632826 0 1.36325 0C1.45722 0 1.54529 0.0107477 1.63109 0.0264214C1.63427 0.0268692 1.6379 0.0273171 1.64244 0.0286605C2.40555 0.175546 2.8114 0.884446 2.8114 0.884893H2.81185V20.404H0V1.28077L0.0063555 1.27898ZM3.19772 20.404V1.28032L6.01003 4.15622V20.404H3.19772ZM3.19772 20.7856H6.01003V23.5594H3.19772V20.7856ZM9.59407 14.9805V7.82163L10.9995 9.25914L12.4064 7.82208V14.9805L10.9995 16.418L9.59407 14.9805ZM6.3959 11.7101V4.55075L9.20866 7.42621V14.5851H9.2082L6.3959 11.7101ZM0 20.7856H2.81185V23.5594H0V20.7856ZM0 23.94H2.81185V26.7138L2.80867 26.7143H0V23.94ZM19.1881 20.7856H21.9995L22 20.7887V23.5594H19.1881V20.7856ZM20.3694 0.0264214C20.4547 0.0107477 20.5428 0 20.6367 0C21.3667 0 21.9646 0.56918 21.9995 1.28077V20.404H19.1881V0.884893C19.1881 0.884446 19.5949 0.175546 20.358 0.0286605C20.3616 0.0273171 20.3648 0.0268692 20.3694 0.0264214ZM19.1881 23.94H21.9995L22 23.9441V26.7138L21.9964 26.7143H19.1881V23.94ZM12.7918 7.42621L15.6041 4.55075V11.7101L12.7918 14.5855V7.42621ZM15.9895 20.7856H18.8014L18.8018 20.7887V23.5594H15.9895V20.7856ZM15.9895 4.15622L18.8014 1.28077L18.8018 1.28345V20.404H15.9895V4.15622Z"
        fill="white"/>
</svg>
